<svg width="9" height="9" viewBox="0 0 9 9" fill="none" xmlns="http://www.w3.org/2000/svg">
<path d="M1.41832 3.48994C0.942283 3.402 0.505082 3.70579 0.414455 4.17047C0.323828 4.63515 0.628574 5.08884 1.09167 5.17978C2.48593 5.45159 3.5625 6.53085 3.83538 7.92989V7.93089C3.91306 8.33361 4.2676 8.62641 4.67592 8.62641C4.73069 8.62641 4.78547 8.62141 4.84124 8.61142C5.30433 8.51849 5.60908 8.0658 5.51845 7.60012C5.11113 5.51055 3.50275 3.89666 1.41832 3.48994Z" fill="#D0D2DA"/>
<path d="M1.35609 0.00792976C1.13301 -0.0240483 0.908934 0.0419064 0.730668 0.183809C0.547422 0.32771 0.432893 0.535567 0.407996 0.768408C0.355213 1.23908 0.694815 1.66479 1.16488 1.71776C4.40654 2.07951 6.92617 4.60477 7.29067 7.85654C7.33947 8.29224 7.70497 8.62101 8.14117 8.62101C8.17404 8.62101 8.20591 8.61902 8.23877 8.61502C8.46683 8.59004 8.67 8.47711 8.81341 8.29724C8.95582 8.11736 9.02055 7.89351 8.99466 7.66467C8.54053 3.60746 5.40045 0.45862 1.35609 0.00792976Z" fill="#D0D2DA"/>
</svg>
